<?xml version="1.0" standalone="no"?>
<!DOCTYPE svg PUBLIC "-//W3C//DTD SVG 20010904//EN"
 "http://www.w3.org/TR/2001/REC-SVG-20010904/DTD/svg10.dtd">
<svg version="1.0" xmlns="http://www.w3.org/2000/svg"
 width="220.000000pt" height="220.000000pt" viewBox="0 0 220.000000 220.000000"
 preserveAspectRatio="xMidYMid meet">
<metadata>
Created by potrace 1.11, written by Peter Selinger 2001-2013
</metadata>
<g transform="translate(0.000000,220.000000) scale(0.100000,-0.100000)"
fill="#000000" stroke="none">
<path d="M1090 2183 c0 -5 -23 -33 -51 -63 -28 -30 -65 -72 -83 -94 -32 -39
-66 -81 -123 -152 -18 -21 -69 -86 -113 -144 -44 -58 -84 -109 -88 -115 -15
-18 -148 -219 -183 -275 -81 -129 -141 -269 -156 -363 -17 -101 -8 -272 18
-372 21 -78 88 -215 138 -279 57 -75 230 -222 271 -232 3 0 30 -12 61 -27 105
-48 179 -62 329 -61 105 0 193 8 212 20 4 3 18 7 30 9 40 8 185 82 241 124
215 158 336 403 335 674 -1 245 -95 446 -397 846 -47 63 -95 126 -106 141 -11
15 -36 47 -57 71 -20 24 -64 78 -98 119 -108 130 -154 180 -167 180 -7 0 -13
-3 -13 -7z"/>
</g>
</svg>
